# xmcd
#
# Track frame offsets:
#	150
#	50432
#	75415
#	149897
#	196065
#	211822
#	256622
#	286930
#
# Disc length: 4184 seconds
#
# Revision: 0
# Processed by: cddbd v1.4PL0 Copyright (c) Steve Scherf et al.
# Submitted via: EasyCDDAExtractor 4.6.9.1
#
DISCID=6b105608
DTITLE=The Charles Ford Band - As real as it gets
DYEAR=1900
DGENRE=Blues
TTITLE0=Gibson creek shuffle
TTITLE1=Look over yonders walls
TTITLE2=Driftin' blues
TTITLE3=Killer joe
TTITLE4=All these blues
TTITLE5=40 days, 40 nights
TTITLE6=That will never do
TTITLE7=All your love
EXTD=
EXTT0=
EXTT1=
EXTT2=
EXTT3=
EXTT4=
EXTT5=
EXTT6=
EXTT7=
PLAYORDER=
